<svg aria-hidden="true" xmlns="http://www.w3.org/2000/svg" xmlns:xlink="http://www.w3.org/1999/xlink"><symbol viewBox="0 0 100 100" fill="none" id="arrow_left" xmlns="http://www.w3.org/2000/svg">
<g clip-path="url(#aclip0_1548_128)">
<path d="M88.2807 38.283H40.044L56.0528 22.1588C59.4571 18.7336 60.4196 13.8359 58.5647 9.37715C56.71 4.91836 52.5579 2.14844 47.7284 2.14844C44.588 2.14844 41.637 3.37266 39.4177 5.59766L3.42761 41.7154C-1.14172 46.2848 -1.14172 53.7197 3.42273 58.2842L39.419 94.4084C41.637 96.6316 44.5878 97.8561 47.7282 97.8561C52.5573 97.8561 56.7096 95.0861 58.5647 90.6275C60.4194 86.1688 59.4567 81.2711 56.054 77.8477L40.0438 61.7217H68.7483C70.9059 61.7217 72.6548 59.9729 72.6548 57.8152C72.6548 55.6576 70.9059 53.9088 68.7483 53.9088H30.6604C29.0831 53.9088 27.6602 54.8574 27.054 56.3139C26.4477 57.7699 26.7768 59.4482 27.8882 60.5674L50.5112 83.3537C52.2231 85.0762 51.5868 87.06 51.3508 87.6268C51.1149 88.1936 50.1569 90.0436 47.728 90.0436C46.6782 90.0436 45.6915 89.6342 44.9516 88.8924L8.95222 52.7645C7.42918 51.2414 7.42918 48.7631 8.95711 47.2352L44.9501 11.1139C45.6917 10.3707 46.6782 9.96133 47.7282 9.96133C50.1571 9.96133 51.1151 11.8111 51.351 12.3781C51.587 12.9451 52.2233 14.9287 50.5098 16.6527L27.8886 39.4373C26.7772 40.5566 26.4481 42.2348 27.0544 43.691C27.6606 45.1473 29.0833 46.0961 30.6608 46.0961H88.2807C90.4348 46.0961 92.1872 47.8484 92.1872 50.0025C92.1872 52.1566 90.4348 53.909 88.2807 53.909C86.1231 53.909 84.3743 55.6578 84.3743 57.8154C84.3743 59.973 86.1231 61.7219 88.2807 61.7219C94.7427 61.7217 100 56.4645 100 50.0023C100 43.5404 94.7427 38.283 88.2807 38.283Z" fill="currentColor"/>
</g>
<defs>
<clipPath id="aclip0_1548_128">
<rect width="100" height="100" fill="currentColor"/>
</clipPath>
</defs>
</symbol><symbol viewBox="0 0 100 100" fill="none" id="arrow_right" xmlns="http://www.w3.org/2000/svg">
<g clip-path="url(#bclip0_1548_132)">
<path d="M11.7193 38.283H59.956L43.9472 22.1588C40.5429 18.7336 39.5804 13.8359 41.4353 9.37715C43.29 4.91836 47.4421 2.14844 52.2716 2.14844C55.412 2.14844 58.363 3.37266 60.5823 5.59766L96.5724 41.7154C101.142 46.2848 101.142 53.7197 96.5773 58.2842L60.581 94.4084C58.363 96.6316 55.4122 97.8561 52.2718 97.8561C47.4427 97.8561 43.2904 95.0861 41.4353 90.6275C39.5806 86.1688 40.5433 81.2711 43.946 77.8477L59.9562 61.7217H31.2517C29.0941 61.7217 27.3452 59.9729 27.3452 57.8152C27.3452 55.6576 29.0941 53.9088 31.2517 53.9088H69.3396C70.9169 53.9088 72.3398 54.8574 72.946 56.3139C73.5523 57.7699 73.2232 59.4482 72.1118 60.5674L49.4888 83.3537C47.7769 85.0762 48.4132 87.06 48.6492 87.6268C48.8851 88.1936 49.8431 90.0436 52.272 90.0436C53.3218 90.0436 54.3085 89.6342 55.0484 88.8924L91.0478 52.7645C92.5708 51.2414 92.5708 48.7631 91.0429 47.2352L55.0499 11.1139C54.3083 10.3707 53.3218 9.96133 52.2718 9.96133C49.8429 9.96133 48.8849 11.8111 48.649 12.3781C48.413 12.9451 47.7767 14.9287 49.4902 16.6527L72.1114 39.4373C73.2228 40.5566 73.5519 42.2348 72.9456 43.691C72.3394 45.1473 70.9167 46.0961 69.3392 46.0961H11.7193C9.56516 46.0961 7.81282 47.8484 7.81282 50.0025C7.81282 52.1566 9.56516 53.909 11.7193 53.909C13.8769 53.909 15.6257 55.6578 15.6257 57.8154C15.6257 59.973 13.8769 61.7219 11.7193 61.7219C5.25735 61.7217 -7.15256e-05 56.4645 -7.15256e-05 50.0023C-7.15256e-05 43.5404 5.25735 38.283 11.7193 38.283Z" fill="currentColor"/>
</g>
<defs>
<clipPath id="bclip0_1548_132">
<rect width="100" height="100" fill="currentColor" transform="matrix(-1 0 0 1 100 0)"/>
</clipPath>
</defs>
</symbol><symbol viewBox="0 0 24 24" fill="none" id="arrow_up" xmlns="http://www.w3.org/2000/svg">
<path d="M14 22H10C9.448 22 9 21.552 9 21V12.407L3.707 17.69C3.42 17.976 2.99 18.061 2.617 17.906C2.244 17.751 2 17.387 2 16.982V11.982C2 11.716 2.105 11.462 2.293 11.274L11.293 2.292C11.684 1.902 12.316 1.903 12.707 2.293L16.209 5.795C16.6 6.186 16.6 6.818 16.209 7.209C15.818 7.6 15.186 7.6 14.795 7.209L12 4.414L4 12.397V14.572L9.293 9.288C9.581 9.003 10.011 8.918 10.383 9.072C10.756 9.228 11 9.592 11 9.996V20H13V10C13 9.596 13.244 9.231 13.617 9.076C13.991 8.921 14.42 9.007 14.707 9.293L20 14.586V12.414L17.209 9.623C16.818 9.232 16.818 8.6 17.209 8.209C17.6 7.818 18.232 7.818 18.623 8.209L21.707 11.293C21.895 11.48 22 11.735 22 12V17C22 17.404 21.756 17.769 21.383 17.924C21.008 18.079 20.579 17.994 20.293 17.707L15 12.414V21C15 21.552 14.552 22 14 22Z" fill="currentColor"/>
</symbol><symbol viewBox="0 0 100 100" fill="none" id="discord" xmlns="http://www.w3.org/2000/svg">
<g clip-path="url(#dclip0_1319_38)">
<path d="M44.5117 52.7461C44.5117 56.7617 41.6348 60.0293 38.0176 60.0293C34.457 60.0293 31.5234 56.7617 31.5234 52.7461C31.5234 48.7324 34.4004 45.4629 38.0176 45.4629C41.6621 45.4629 44.5684 48.7617 44.5117 52.7461Z" fill="currentColor"/>
<path d="M68.5215 52.7461C68.5215 56.7617 65.6738 60.0293 62.0273 60.0293C58.4668 60.0293 55.5332 56.7617 55.5332 52.7461C55.5332 48.7324 58.4102 45.4629 62.0273 45.4629C65.6738 45.4629 68.5781 48.7617 68.5215 52.7461Z" fill="currentColor"/>
<path d="M50 0C22.3867 0 0 22.3867 0 50C0 77.6133 22.3867 100 50 100C77.6133 100 100 77.6133 100 50C100 22.3867 77.6133 0 50 0ZM85.7246 68.4082C79.5449 72.9473 73.5566 75.7031 67.6523 77.5293C67.5586 77.5586 67.457 77.5234 67.3984 77.4434C66.0352 75.5449 64.7969 73.543 63.7109 71.4414C63.6484 71.3184 63.7051 71.1699 63.834 71.1211C65.8008 70.377 67.6719 69.4883 69.4727 68.4375C69.6152 68.3535 69.623 68.1504 69.4922 68.0527C69.1113 67.7695 68.7324 67.4707 68.3711 67.1719C68.3027 67.1172 68.2109 67.1055 68.1348 67.1426C56.4473 72.543 43.6445 72.543 31.8184 67.1426C31.7422 67.1094 31.6504 67.1211 31.5859 67.1758C31.2246 67.4727 30.8457 67.7695 30.4668 68.0527C30.3359 68.1504 30.3457 68.3535 30.4883 68.4375C32.2891 69.4687 34.1602 70.377 36.125 71.123C36.2539 71.1719 36.3145 71.3184 36.25 71.4414C35.1895 73.5469 33.9492 75.5469 32.5605 77.4453C32.5 77.5234 32.4004 77.5586 32.3066 77.5293C26.4297 75.7031 20.4434 72.9473 14.2617 68.4082C14.2109 68.3672 14.1738 68.3047 14.168 68.2383C12.9102 54.7559 15.4766 41.1055 24.8437 27.1094C24.8672 27.0723 24.9004 27.043 24.9414 27.0273C29.5488 24.9102 34.4883 23.3535 39.6484 22.4648C39.7422 22.4512 39.8359 22.4941 39.8848 22.5762C40.5234 23.707 41.252 25.1543 41.7461 26.3379C47.1855 25.5078 52.7109 25.5078 58.2656 26.3379C58.7578 25.1797 59.4609 23.707 60.0957 22.5762C60.1445 22.4902 60.2383 22.4473 60.332 22.4648C65.4961 23.3555 70.4355 24.9141 75.041 27.0273C75.082 27.043 75.1152 27.0723 75.1348 27.1133C83.2949 39.1152 87.3262 52.6543 85.8184 68.2422C85.8125 68.3086 85.7793 68.3672 85.7246 68.4082Z" fill="currentColor"/>
</g>
<defs>
<clipPath id="dclip0_1319_38">
<rect width="100" height="100" fill="currentColor"/>
</clipPath>
</defs>
</symbol><symbol viewBox="0 0 512 512" fill="none" id="globe" xmlns="http://www.w3.org/2000/svg">
<g clip-path="url(#eclip0_1329_98)">
<path d="M210.687 3.529C191.297 42.025 176.482 82.576 166.437 124.38C190.819 129.834 215.759 133.071 240.974 133.99V0C230.752 0.587 220.643 1.764 210.687 3.529Z" fill="currentColor"/>
<path d="M351.802 153.812C325.35 159.705 298.347 163.129 271.027 164.048V240.975H360.926C360.143 211.627 357.089 182.483 351.802 153.812Z" fill="currentColor"/>
<path d="M301.305 3.528C291.352 1.764 281.245 0.587 271.026 0V133.982C296.236 133.073 321.147 129.87 345.551 124.416C335.502 82.593 320.678 42.007 301.305 3.528Z" fill="currentColor"/>
<path d="M271.026 378.02V512.002C281.25 511.415 291.361 510.237 301.318 508.472C320.169 471.076 335.307 430.633 345.634 387.604C321.204 382.139 296.265 378.93 271.026 378.02Z" fill="currentColor"/>
<path d="M390.991 271.027C390.191 302.91 386.853 334.6 381.015 365.749C410.896 374.616 439.641 386.615 467.098 401.708C493.762 363.251 509.284 318.352 512 271.027H390.991Z" fill="currentColor"/>
<path d="M166.366 387.604C176.077 428.063 190.632 468.697 210.682 508.471C220.639 510.237 230.751 511.414 240.974 512.001V378.02C215.736 378.93 190.796 382.139 166.366 387.604Z" fill="currentColor"/>
<path d="M160.202 153.781C154.921 182.438 151.856 211.582 151.076 240.974H240.974V164.062C213.651 163.135 186.623 159.669 160.202 153.781Z" fill="currentColor"/>
<path d="M44.904 110.289C18.239 148.746 2.717 193.647 0 240.973H121.014C121.819 209.022 125.183 177.342 131.035 146.217C101.198 137.373 72.327 125.354 44.904 110.289Z" fill="currentColor"/>
<path d="M137.291 395.246C112.271 402.828 87.7848 412.82 63.7158 425.672C92.8308 458.579 129.906 484.015 172.712 498.666C157.717 465.359 145.858 430.769 137.291 395.246Z" fill="currentColor"/>
<path d="M63.7246 86.3174C87.2716 98.8814 111.934 109.054 137.361 116.747C145.927 81.2624 157.77 46.6414 172.761 13.3164C131.79 27.3304 94.1666 51.9144 63.7246 86.3174Z" fill="currentColor"/>
<path d="M121.009 271.027H0C2.717 318.352 18.238 363.251 44.902 401.708C72.33 386.632 101.072 374.626 130.986 365.749C125.147 334.6 121.809 302.91 121.009 271.027Z" fill="currentColor"/>
<path d="M339.232 13.3164C354.211 46.6384 366.051 81.2854 374.62 116.782C400.204 109.036 424.675 98.9354 448.284 86.3294C419.092 53.3354 381.97 27.9334 339.232 13.3164Z" fill="currentColor"/>
<path d="M374.71 395.246C366.146 430.755 354.289 465.345 339.289 498.666C382.103 484.012 419.176 458.572 448.285 425.672C425.216 413.354 400.823 403.159 374.71 395.246Z" fill="currentColor"/>
<path d="M151.069 271.027C151.843 300.364 154.885 329.522 160.153 358.2C186.62 352.301 213.637 348.873 240.974 347.954V271.027H151.069Z" fill="currentColor"/>
<path d="M467.098 110.293C440.211 125.072 411.499 137.21 380.952 146.27C386.81 177.406 390.179 209.077 390.986 240.974H512C509.283 193.649 493.762 148.75 467.098 110.293Z" fill="currentColor"/>
<path d="M271.026 271.027V347.954C298.362 348.873 325.38 352.301 351.847 358.2C357.115 329.522 360.157 300.364 360.931 271.027H271.026Z" fill="currentColor"/>
</g>
<defs>
<clipPath id="eclip0_1329_98">
<rect width="512" height="512" fill="currentColor"/>
</clipPath>
</defs>
</symbol><symbol viewBox="0 0 100 100" fill="none" id="telegram" xmlns="http://www.w3.org/2000/svg">
<g clip-path="url(#fclip0_1319_36)">
<path d="M50 0C22.3857 0 0 22.3857 0 50C0 77.6143 22.3857 100 50 100C77.6143 100 100 77.6143 100 50C100 22.3857 77.6143 0 50 0ZM75.9881 31.6281L67.1076 74.0234C67.0002 74.5362 66.7656 75.0138 66.4254 75.4122C66.0853 75.8107 65.6504 76.1173 65.1608 76.3038C64.6713 76.4903 64.1427 76.5509 63.6236 76.4798C63.1045 76.4087 62.6117 76.2083 62.1902 75.8971L49.273 66.3539L41.4473 73.7367C41.3448 73.8334 41.2242 73.9086 41.0923 73.9581C40.9605 74.0076 40.8201 74.0304 40.6794 74.025C40.5386 74.0197 40.4004 73.9864 40.2727 73.927C40.145 73.8676 40.0304 73.7834 39.9355 73.6793L39.7674 73.4945L41.1271 60.3354L65.6357 37.9426C65.7569 37.832 65.8323 37.6801 65.847 37.5167C65.8616 37.3533 65.8145 37.1903 65.715 37.0599C65.6154 36.9296 65.4706 36.8412 65.3091 36.8124C65.1476 36.7835 64.9811 36.8163 64.8426 36.9041L33.499 56.742L20 52.2084C19.6411 52.0878 19.3282 51.8591 19.1044 51.5537C18.8806 51.2483 18.7568 50.8811 18.75 50.5025C18.7431 50.1239 18.8536 49.7525 19.0662 49.4392C19.2788 49.1259 19.5832 48.886 19.9375 48.7525L72.7539 28.8563C73.1613 28.7029 73.6025 28.6619 74.0312 28.7374C74.4599 28.8129 74.8604 29.0022 75.191 29.2855C75.5215 29.5687 75.7699 29.9356 75.9101 30.3477C76.0503 30.7598 76.0772 31.202 75.9881 31.6281Z" fill="currentColor"/>
</g>
<defs>
<clipPath id="fclip0_1319_36">
<rect width="100" height="100" fill="currentColor"/>
</clipPath>
</defs>
</symbol><symbol viewBox="0 0 100 100" fill="none" id="whatsapp" xmlns="http://www.w3.org/2000/svg">
<g clip-path="url(#gclip0_1456_6)">
<path d="M50.8336 0C23.7219 0 1.66691 22.055 1.66691 49.1667C1.66691 57.7433 3.91025 66.17 8.16025 73.5833L0.0852478 97.8067C-0.108085 98.3883 0.0319146 99.0267 0.450248 99.4733C0.770248 99.815 1.21358 100 1.66691 100C1.80858 100 1.95025 99.9817 2.09025 99.945L28.5352 92.9867C35.4052 96.4867 43.1002 98.3333 50.8336 98.3333C77.9452 98.3333 100 76.2783 100 49.1667C100 22.055 77.9452 0 50.8336 0ZM81.5136 71.4917L78.5836 74.4233C74.8836 78.1233 70.7552 80 66.3169 80C60.3336 80 53.8819 76.5833 47.1452 69.845L30.1552 52.8567C24.8419 47.5433 21.5769 42.3817 20.4502 37.5133C19.0836 31.6017 20.8086 26.1867 25.5786 21.4183L28.5102 18.4867C30.3952 16.6017 33.4436 16.1383 35.8052 17.3883C40.2419 19.7367 44.8386 27.43 45.3486 28.3C46.2686 29.9117 46.5502 31.5783 46.1536 33.0067C45.8502 34.0983 45.1669 34.9883 44.1736 35.5933C42.8269 36.72 41.2486 38.1233 40.9702 38.48C39.2769 40.9783 39.4702 42.8967 41.6519 45.08L54.9219 58.35C57.1219 60.5517 59.0069 60.7333 61.5452 59.0133C61.8802 58.7517 63.2819 57.1733 64.4086 55.8267C65.2502 54.435 66.6286 53.6733 68.3052 53.6733C69.4036 53.6733 70.5719 54.0067 71.6836 54.64C72.5702 55.1617 80.2652 59.7583 82.6119 64.1933C83.8952 66.62 83.4552 69.55 81.5136 71.4917Z" fill="currentColor"/>
</g>
<defs>
<clipPath id="gclip0_1456_6">
<rect width="100" height="100" fill="currentColor"/>
</clipPath>
</defs>
</symbol></svg>